<svg version="1.1" xmlns="http://www.w3.org/2000/svg" viewBox="0 0 501 401" width="501" height="401" filter="invert(93%) hue-rotate(180deg)" class="excalidraw-svg">
  <!-- svg-source:excalidraw -->
  
  <defs>
    <style class="style-fonts">
      @font-face {
        font-family: "Virgil";
        src: url("https://excalidraw.com/Virgil.woff2");
      }
      @font-face {
        font-family: "Cascadia";
        src: url("https://excalidraw.com/Cascadia.woff2");
      }
      @font-face {
        font-family: "Assistant";
        src: url("https://excalidraw.com/Assistant-Regular.woff2");
      }
    </style>
    
  </defs>
  <g stroke-linecap="round" transform="translate(134 32) rotate(0 52 41.5)"><path d="M8.62 35.32 C8.62 35.32, 8.62 35.32, 8.62 35.32 M8.62 35.32 C8.62 35.32, 8.62 35.32, 8.62 35.32 M8.09 48.11 C18.12 36.75, 25.85 26.47, 40.9 10.38 M8.09 48.11 C17.11 38.43, 23.26 29.88, 40.9 10.38 M14.13 53.36 C28.29 36.25, 44.34 19.02, 56.77 4.3 M14.13 53.36 C24.59 41.16, 34.61 29.43, 56.77 4.3 M20.82 57.85 C36.53 41.8, 51.37 23.18, 63.47 8.8 M20.82 57.85 C31.17 46.65, 41.01 34.98, 63.47 8.8 M27.52 62.35 C43.83 41.62, 61.3 22.41, 70.16 13.29 M27.52 62.35 C39.8 48.11, 53.28 32.7, 70.16 13.29 M33.56 67.6 C45.12 53.28, 57.69 38.97, 76.2 18.54 M33.56 67.6 C49.01 47.98, 66.17 29.49, 76.2 18.54 M40.25 72.09 C52.68 56.94, 67.37 42.81, 82.24 23.79 M40.25 72.09 C51.18 60.84, 60.76 48.37, 82.24 23.79 M46.29 77.34 C60.89 57.36, 77.72 41.75, 88.28 29.04 M46.29 77.34 C59.44 64.62, 70.43 49.02, 88.28 29.04 M54.29 80.32 C64.06 67.92, 74.86 57.07, 94.31 34.28 M54.29 80.32 C69.87 61.65, 84.66 44.82, 94.31 34.28 M84.61 57.65 C88.85 50.67, 94.73 48.3, 99.69 40.29 M84.61 57.65 C90.9 52.45, 94.8 46.06, 99.69 40.29" stroke="#9775fa" stroke-width="1" fill="none"/><path d="M66.25 10.5 C71.26 17.64, 80.95 23.95, 90.75 31.5 M66.25 10.5 C71.71 15.35, 78.06 21.56, 90.75 31.5 M90.75 31.5 C104.81 40.71, 103.04 40.5, 90.75 52.5 M90.75 31.5 C103.82 42.49, 102.9 42.97, 90.75 52.5 M90.75 52.5 C86.21 56.52, 76.72 64.16, 66.25 72.5 M90.75 52.5 C85.18 57.79, 79.52 61.86, 66.25 72.5 M66.25 72.5 C53.29 83.49, 52.82 82.49, 39.75 72.5 M66.25 72.5 C51.42 80.77, 52.86 83.47, 39.75 72.5 M39.75 72.5 C28.49 65.97, 17.13 56.92, 13.25 52.5 M39.75 72.5 C32.98 67.17, 26.16 62.64, 13.25 52.5 M13.25 52.5 C0.47 41.28, 0.68 41.07, 13.25 31.5 M13.25 52.5 C0.16 43.91, 0.31 39.95, 13.25 31.5 M13.25 31.5 C17.47 26.2, 22.64 23.15, 39.75 10.5 M13.25 31.5 C19.55 26.22, 26.76 21.61, 39.75 10.5 M39.75 10.5 C54.52 1.97, 53.04 -0.43, 66.25 10.5 M39.75 10.5 C53.81 -0.74, 50.75 -1.66, 66.25 10.5" stroke="#1e1e1e" stroke-width="2" fill="none"/></g><g stroke-linecap="round" transform="translate(370 106) rotate(0 60.5 49.5)"><path d="M10.06 41.87 C10.06 41.87, 10.06 41.87, 10.06 41.87 M10.06 41.87 C10.06 41.87, 10.06 41.87, 10.06 41.87 M8.22 56.17 C18.39 43.28, 29.77 30.52, 44.31 14.66 M8.22 56.17 C18.08 44.41, 29.3 32.86, 44.31 14.66 M14.26 61.42 C29.99 40.57, 48.49 22.45, 64.12 4.06 M14.26 61.42 C24.27 48.27, 35 35.56, 64.12 4.06 M20.3 66.67 C33.45 51.19, 48.11 34.41, 70.81 8.56 M20.3 66.67 C36.08 49.12, 51.69 30.39, 70.81 8.56 M26.99 71.16 C40.24 59.32, 49.32 42.98, 77.51 13.05 M26.99 71.16 C45.04 49.91, 64.1 28.14, 77.51 13.05 M33.03 76.41 C52.56 52.93, 72.58 33.36, 83.55 18.3 M33.03 76.41 C46.29 60.04, 59.56 43.77, 83.55 18.3 M39.72 80.91 C53.31 63.08, 69.46 50.48, 89.58 23.55 M39.72 80.91 C53.83 64.52, 66.94 49.48, 89.58 23.55 M45.76 86.15 C57.73 71.17, 72.8 52.57, 95.62 28.8 M45.76 86.15 C57.9 73.01, 68.6 58.86, 95.62 28.8 M52.45 90.65 C68.65 69.75, 88.82 51.98, 101.66 34.04 M52.45 90.65 C64.26 78.23, 74.88 63.35, 101.66 34.04 M58.49 95.9 C71.09 82.81, 80.59 69.85, 107.7 39.29 M58.49 95.9 C72.31 79.23, 85.7 64.51, 107.7 39.29 M76.34 87.56 C90.62 70.35, 100.82 55.27, 113.73 44.54 M76.34 87.56 C86.86 75, 96.37 63.96, 113.73 44.54" stroke="#9775fa" stroke-width="1" fill="none"/><path d="M76.25 12.5 C84.66 19.53, 93.78 30.18, 105.75 37.5 M76.25 12.5 C82.77 19.61, 92.16 24.57, 105.75 37.5 M105.75 37.5 C122.54 48.15, 122.12 50.29, 105.75 62.5 M105.75 37.5 C121.57 49.8, 120.41 48.42, 105.75 62.5 M105.75 62.5 C101.72 66.54, 94.1 71.53, 76.25 86.5 M105.75 62.5 C94.23 70.94, 84.11 80.28, 76.25 86.5 M76.25 86.5 C60.48 99.03, 61.77 99.47, 45.75 86.5 M76.25 86.5 C60.18 99.78, 59.93 99.16, 45.75 86.5 M45.75 86.5 C32.34 78.67, 23.53 66.53, 15.25 62.5 M45.75 86.5 C37.21 80.59, 28.6 73.6, 15.25 62.5 M15.25 62.5 C-0.76 51.19, 0.32 51.52, 15.25 37.5 M15.25 62.5 C2.27 50.04, -0.49 50.81, 15.25 37.5 M15.25 37.5 C22.67 32.58, 32.73 24.26, 45.75 12.5 M15.25 37.5 C25.28 28.12, 36.53 20.29, 45.75 12.5 M45.75 12.5 C61.05 -0.47, 60.81 -0.13, 76.25 12.5 M45.75 12.5 C60.74 0.54, 63.01 0.74, 76.25 12.5" stroke="#1e1e1e" stroke-width="2" fill="none"/></g><g stroke-linecap="round" transform="translate(124 256) rotate(0 51.5 40)"><path d="M2.85 7.77 C2.85 7.77, 2.85 7.77, 2.85 7.77 M2.85 7.77 C2.85 7.77, 2.85 7.77, 2.85 7.77 M1.01 22.08 C6.36 13.68, 15.41 9.92, 20.04 0.19 M1.01 22.08 C6.57 16.17, 11.99 10, 20.04 0.19 M1.14 34.12 C9.87 23.88, 16.38 15.4, 30.67 0.16 M1.14 34.12 C7.76 26.88, 14.14 19.98, 30.67 0.16 M1.28 46.16 C15.27 28.55, 28.9 13.02, 41.3 0.12 M1.28 46.16 C13.91 32.19, 26.52 16.79, 41.3 0.12 M0.75 58.96 C18.31 38.04, 37.41 12.45, 51.93 0.09 M0.75 58.96 C13.08 44.5, 25.34 32.52, 51.93 0.09 M2.86 68.73 C24.59 46.41, 45.23 19.35, 62.56 0.05 M2.86 68.73 C22.9 44.37, 44.18 20.28, 62.56 0.05 M6.93 76.25 C21.53 57.69, 39.07 38.13, 73.19 0.02 M6.93 76.25 C21.61 58.08, 37.09 42.25, 73.19 0.02 M14.93 79.23 C36.95 51.78, 62.99 22.41, 83.16 0.74 M14.93 79.23 C31.12 59.8, 45.95 42.18, 83.16 0.74 M24.25 80.7 C40.27 61.66, 56.96 42.06, 92.48 2.22 M24.25 80.7 C40.54 62.06, 55.93 43.8, 92.48 2.22 M34.88 80.67 C54.04 56.12, 76.07 34.03, 99.17 6.71 M34.88 80.67 C59.76 51.46, 86.4 23.63, 99.17 6.71 M45.51 80.64 C55.29 66.03, 69.83 51.96, 102.59 14.98 M45.51 80.64 C58.43 65.66, 70.74 52.17, 102.59 14.98 M56.14 80.6 C66.05 67.85, 79.57 54.53, 103.38 26.26 M56.14 80.6 C68.35 66.36, 79.01 52.89, 103.38 26.26 M66.77 80.57 C77.04 70.12, 85.53 57.44, 102.85 39.06 M66.77 80.57 C76.28 71.1, 84.14 59.2, 102.85 39.06 M77.4 80.53 C83.26 75.39, 86.35 68.75, 102.99 51.1 M77.4 80.53 C84.44 73.01, 90.41 64.67, 102.99 51.1 M89.34 78.99 C93.73 73.53, 98 69.47, 103.12 63.14 M89.34 78.99 C92.11 74.48, 95.89 71.11, 103.12 63.14" stroke="#ff8787" stroke-width="1" fill="none"/><path d="M20 0 C33.51 -0.14, 47.92 1.38, 83 0 M20 0 C35.24 1.25, 50.57 1.39, 83 0 M83 0 C95.77 -1.15, 104.35 5.82, 103 20 M83 0 C96.32 -1.74, 103.21 6.07, 103 20 M103 20 C102.29 30.98, 101.65 42.53, 103 60 M103 20 C103.64 33.27, 102.54 46.59, 103 60 M103 60 C101.06 72.97, 96.98 79.8, 83 80 M103 60 C102.68 71.37, 98.43 82.13, 83 80 M83 80 C66.06 77.93, 47.91 79.14, 20 80 M83 80 C64.82 81.15, 48.11 79.76, 20 80 M20 80 C5.27 80.11, 0.05 74.7, 0 60 M20 80 C6.85 79.77, -1.96 74.62, 0 60 M0 60 C-0.7 47.34, 1.66 30.07, 0 20 M0 60 C1.04 44.52, -0.38 29.44, 0 20 M0 20 C1 5.39, 8.47 -0.66, 20 0 M0 20 C0.26 5.66, 6.17 1.89, 20 0" stroke="#1e1e1e" stroke-width="2" fill="none"/></g><g stroke-linecap="round" transform="translate(378 310) rotate(0 55.5 40.5)"><path d="M5.39 4.69 C5.39 4.69, 5.39 4.69, 5.39 4.69 M5.39 4.69 C5.39 4.69, 5.39 4.69, 5.39 4.69 M0.93 22.01 C7.02 12.05, 14.25 5.06, 19.3 0.88 M0.93 22.01 C5.37 17.51, 8.24 13.22, 19.3 0.88 M1.06 34.05 C13.49 22.15, 24.08 6.69, 29.93 0.84 M1.06 34.05 C9.16 23.97, 19.07 13.65, 29.93 0.84 M0.54 46.85 C11 31.3, 25.42 17.53, 40.56 0.81 M0.54 46.85 C9.84 37.17, 19.08 26.01, 40.56 0.81 M0.67 58.89 C15.29 40.13, 34.2 22.06, 51.19 0.77 M0.67 58.89 C12.17 44.82, 24.94 31.98, 51.19 0.77 M2.12 69.42 C17.06 50.87, 35.01 32.79, 61.82 0.74 M2.12 69.42 C18.71 51.05, 33.61 31.43, 61.82 0.74 M6.19 76.93 C25.14 55.57, 38.48 36.37, 72.45 0.71 M6.19 76.93 C18.06 61.72, 33.23 44.99, 72.45 0.71 M14.19 79.92 C31.61 59.23, 52.16 37.17, 83.08 0.67 M14.19 79.92 C31.26 59.99, 50.48 37.98, 83.08 0.67 M23.51 81.39 C47.38 53.56, 74.14 24.53, 93.71 0.64 M23.51 81.39 C43.31 58.51, 63.16 36.68, 93.71 0.64 M34.14 81.36 C56.14 56.47, 78.5 30.8, 102.37 2.87 M34.14 81.36 C58.26 53.86, 84.62 25.41, 102.37 2.87 M44.77 81.32 C66.93 54.78, 90.43 30.18, 108.41 8.11 M44.77 81.32 C65.44 59.16, 84.74 35.79, 108.41 8.11 M55.4 81.29 C72.54 59.88, 90.1 38.74, 111.17 17.14 M55.4 81.29 C70.42 64.08, 86.36 46.62, 111.17 17.14 M66.03 81.25 C79.11 63.57, 96.74 47.27, 111.3 29.18 M66.03 81.25 C82.52 61.63, 99.21 44.57, 111.3 29.18 M76.66 81.22 C88.61 68.65, 100.98 53.19, 110.78 41.97 M76.66 81.22 C87.44 67, 99.94 53.6, 110.78 41.97 M87.29 81.18 C95.64 73.21, 101.32 64.19, 110.91 54.01 M87.29 81.18 C94.16 74.37, 100.12 65.64, 110.91 54.01 M98.58 80.39 C102.41 77.12, 102.1 72.77, 111.04 66.05 M98.58 80.39 C101.29 75.42, 104.9 73.1, 111.04 66.05" stroke="#ff8787" stroke-width="1" fill="none"/><path d="M20.25 0 C38.11 0.02, 56.94 1.31, 90.75 0 M20.25 0 C47.14 -1.21, 73.62 -0.39, 90.75 0 M90.75 0 C104.3 1.37, 111.16 6.55, 111 20.25 M90.75 0 C102.29 1.28, 112.35 8.03, 111 20.25 M111 20.25 C112.79 29.18, 112.36 40.28, 111 60.75 M111 20.25 C110.95 33.73, 111.89 48.07, 111 60.75 M111 60.75 C112.8 73.59, 104.47 80.12, 90.75 81 M111 60.75 C110.5 76.14, 104.13 82.35, 90.75 81 M90.75 81 C77.23 82.27, 61.87 82.41, 20.25 81 M90.75 81 C76.17 79.56, 62.82 80.58, 20.25 81 M20.25 81 C4.95 80.57, -1 72.87, 0 60.75 M20.25 81 C8.95 83.22, -0.63 75.53, 0 60.75 M0 60.75 C1.27 51.29, -0.86 42.42, 0 20.25 M0 60.75 C-0.47 51.69, -1.09 43.16, 0 20.25 M0 20.25 C-1.04 7.65, 5.91 1.54, 20.25 0 M0 20.25 C-0.81 8.17, 6.14 -0.19, 20.25 0" stroke="#1e1e1e" stroke-width="2" fill="none"/></g><g stroke-linecap="round" transform="translate(10 104) rotate(0 37.5 32.5)"><path d="M8.82 11.64 C8.82 11.64, 8.82 11.64, 8.82 11.64 M8.82 11.64 C8.82 11.64, 8.82 11.64, 8.82 11.64 M1.08 32.74 C8.49 23.92, 12.38 17.89, 28.64 1.04 M1.08 32.74 C11.36 21.12, 20.03 11.46, 28.64 1.04 M3.84 41.76 C12.84 33.48, 17.62 22.77, 38.61 1.76 M3.84 41.76 C14.94 29.91, 24.56 18.43, 38.61 1.76 M7.25 50.03 C16.4 40.74, 24.31 29.76, 49.24 1.73 M7.25 50.03 C17.62 35.83, 29.65 23.08, 49.24 1.73 M13.29 55.28 C26.85 36.11, 42.29 21.31, 56.59 5.47 M13.29 55.28 C27.43 39.35, 39.3 25.82, 56.59 5.47 M19.98 59.77 C31.51 47.65, 42.21 33.82, 63.28 9.96 M19.98 59.77 C37.24 40.27, 52.9 22.74, 63.28 9.96 M27.99 62.76 C44 46.4, 57.7 26.46, 69.32 15.21 M27.99 62.76 C41.1 48.27, 54.32 32.82, 69.32 15.21 M37.96 63.48 C45.63 54.57, 57.14 42.11, 72.73 23.48 M37.96 63.48 C46.18 55.46, 53.22 46.14, 72.73 23.48 M48.59 63.44 C57.6 54.22, 66.29 42.95, 75.49 32.5 M48.59 63.44 C54.91 55.68, 61.45 47.91, 75.49 32.5" stroke="#ffd43b" stroke-width="1" fill="none"/><path d="M29.23 0.73 C36.08 -1.48, 45.2 -0.89, 51.95 1.5 C58.7 3.88, 65.76 9.59, 69.71 15.05 C73.66 20.52, 76.27 27.99, 75.65 34.31 C75.04 40.63, 70.97 47.95, 66.01 52.96 C61.04 57.97, 53.06 62.79, 45.87 64.36 C38.69 65.93, 29.65 64.94, 22.9 62.37 C16.15 59.79, 9.23 54.32, 5.38 48.9 C1.52 43.48, -0.85 36.13, -0.22 29.86 C0.4 23.59, 3.8 16.25, 9.12 11.3 C14.43 6.35, 27.48 1.94, 31.68 0.15 C35.87 -1.64, 34.31 0.02, 34.28 0.56 M28.54 -0.41 C35.35 -2.4, 44.47 -0.67, 51.36 1.89 C58.24 4.44, 66.08 9.24, 69.85 14.91 C73.62 20.58, 74.35 29.32, 73.99 35.9 C73.63 42.48, 72.4 49.46, 67.68 54.38 C62.95 59.29, 53.2 64.18, 45.63 65.39 C38.05 66.6, 29.04 64.46, 22.23 61.63 C15.43 58.81, 8.62 53.71, 4.78 48.42 C0.93 43.14, -1.28 36.05, -0.85 29.9 C-0.41 23.76, 2.26 16.25, 7.38 11.57 C12.49 6.89, 26.28 3.59, 29.84 1.82 C33.4 0.06, 28.75 0.34, 28.73 0.96" stroke="#1e1e1e" stroke-width="2" fill="none"/></g><g stroke-linecap="round" transform="translate(286 172) rotate(0 32 30)"><path d="M7.09 10.13 C7.09 10.13, 7.09 10.13, 7.09 10.13 M7.09 10.13 C7.09 10.13, 7.09 10.13, 7.09 10.13 M0.66 29.72 C6.54 23.47, 13.97 14.69, 25.59 1.04 M0.66 29.72 C5.97 22.88, 13.87 15.93, 25.59 1.04 M3.42 38.74 C15.91 26.5, 25.5 13.09, 34.91 2.52 M3.42 38.74 C14.27 25.6, 25.96 12.86, 34.91 2.52 M6.17 47.77 C18.9 33.43, 30.41 17.33, 44.22 3.99 M6.17 47.77 C15.74 37.08, 23.41 26.28, 44.22 3.99 M12.21 53.01 C25.79 35.04, 38.3 20.38, 51.57 7.73 M12.21 53.01 C23.89 38.25, 38.18 24.16, 51.57 7.73 M19.56 56.75 C30.24 41.41, 42.06 29.48, 56.96 13.74 M19.56 56.75 C28.83 46.38, 39.19 35.37, 56.96 13.74 M26.91 60.49 C37.24 49.71, 47.53 34.17, 62.99 18.98 M26.91 60.49 C40.73 44.52, 52.86 30.26, 62.99 18.98 M38.85 58.95 C43.56 53.8, 51.68 44.92, 63.13 31.02 M38.85 58.95 C45.54 50.27, 52.05 42.52, 63.13 31.02" stroke="#ffd43b" stroke-width="1" fill="none"/><path d="M25.85 1.13 C32.23 -0.46, 41.02 1.05, 47.15 3.99 C53.27 6.93, 59.93 12.65, 62.6 18.78 C65.28 24.91, 65.68 34.51, 63.21 40.77 C60.74 47.02, 53.8 53.06, 47.81 56.31 C41.81 59.56, 33.98 61.24, 27.23 60.24 C20.49 59.25, 11.82 55.2, 7.35 50.33 C2.88 45.46, 0.48 37.71, 0.42 31.04 C0.35 24.36, 1.84 15.52, 6.95 10.29 C12.06 5.07, 26.32 1.26, 31.08 -0.31 C35.84 -1.88, 35.5 0.25, 35.53 0.86 M27.13 -0.58 C33.77 -1.74, 43.34 1.8, 49.06 4.94 C54.78 8.09, 59.51 12.34, 61.45 18.31 C63.38 24.27, 62.72 34.37, 60.65 40.74 C58.58 47.1, 54.58 53.55, 49.02 56.5 C43.46 59.46, 34.13 59.78, 27.27 58.48 C20.41 57.18, 12.46 53.4, 7.84 48.69 C3.22 43.97, -0.45 36.49, -0.43 30.19 C-0.4 23.9, 3.57 16.02, 7.97 10.92 C12.36 5.81, 22.7 1.13, 25.94 -0.44 C29.18 -2.01, 27.23 0.91, 27.41 1.48" stroke="#1e1e1e" stroke-width="2" fill="none"/></g><g stroke-linecap="round" transform="translate(294 10) rotate(0 42 34)"><path d="M13.1 10.06 C13.1 10.06, 13.1 10.06, 13.1 10.06 M13.1 10.06 C13.1 10.06, 13.1 10.06, 13.1 10.06 M2.08 34.93 C8.34 23.81, 16.51 18.29, 30.29 2.48 M2.08 34.93 C8.98 27.1, 13.96 19.8, 30.29 2.48 M3.52 45.46 C16.65 31.76, 28.62 20.12, 42.23 0.93 M3.52 45.46 C15.94 30.17, 30.34 14.84, 42.23 0.93 M8.25 52.22 C20.42 41.69, 27.84 27.76, 50.89 3.16 M8.25 52.22 C21.14 37.47, 33.53 24.67, 50.89 3.16 M14.94 56.71 C29.76 41.1, 40.35 25.23, 60.21 4.64 M14.94 56.71 C24.53 44.83, 33.3 33.97, 60.21 4.64 M20.98 61.96 C33.66 44.31, 50.62 28.22, 66.9 9.13 M20.98 61.96 C35.9 43.55, 52.68 25.83, 66.9 9.13 M29.64 64.19 C43.98 50.35, 57.46 34.74, 73.6 13.63 M29.64 64.19 C47.17 45.11, 64.36 24.44, 73.6 13.63 M38.96 65.67 C47.82 54.11, 57.02 42.61, 79.63 18.87 M38.96 65.67 C48.52 54.15, 58.67 43.4, 79.63 18.87 M47.62 67.9 C57.52 53.63, 72.14 44.12, 81.74 28.65 M47.62 67.9 C56.3 58.05, 63.38 48.12, 81.74 28.65 M62.84 62.58 C69.67 54.49, 75.06 51.11, 83.18 39.18 M62.84 62.58 C70.18 53.63, 78.09 44.63, 83.18 39.18" stroke="#ffd43b" stroke-width="1" fill="none"/><path d="M36.17 0.03 C43.72 -1.28, 53.73 1.36, 61.03 4.54 C68.33 7.71, 76.31 13.17, 79.99 19.07 C83.67 24.97, 84.68 33.24, 83.12 39.95 C81.56 46.66, 76.57 54.8, 70.65 59.34 C64.73 63.89, 55.7 66.61, 47.61 67.24 C39.51 67.87, 29.37 66.28, 22.1 63.1 C14.83 59.91, 7.47 54.03, 3.97 48.13 C0.48 42.23, -0.37 34.05, 1.14 27.72 C2.65 21.39, 6.55 14.73, 13.02 10.15 C19.48 5.57, 34.81 1.96, 39.92 0.23 C45.03 -1.51, 43.75 -0.66, 43.67 -0.25 M59.38 2.94 C66.8 4.87, 74.69 10.27, 78.8 16.38 C82.91 22.5, 84.98 32.6, 84.03 39.62 C83.07 46.63, 78.95 53.76, 73.07 58.46 C67.19 63.15, 56.84 66.63, 48.73 67.8 C40.62 68.98, 31.83 68.32, 24.4 65.51 C16.96 62.7, 7.98 56.75, 4.12 50.94 C0.26 45.12, 0.25 37.4, 1.25 30.62 C2.25 23.85, 4.71 15.24, 10.12 10.28 C15.54 5.32, 25.45 1.92, 33.74 0.86 C42.04 -0.2, 55.74 3.17, 59.88 3.91 C64.02 4.65, 58.92 4.78, 58.6 5.29" stroke="#1e1e1e" stroke-width="2" fill="none"/></g><g stroke-linecap="round"><g transform="translate(83 118) rotate(0 34 -12)"><path d="M-0.75 0.61 C10.63 -3.35, 57.45 -18.96, 68.71 -23.1 M1.06 -0.11 C12.31 -4.46, 56.79 -20.94, 68.13 -24.76" stroke="#1e1e1e" stroke-width="2" fill="none"/></g><g transform="translate(83 118) rotate(0 34 -12)"><path d="M48.87 -8.82 C56.28 -12.88, 63.23 -21.38, 68.13 -24.76 M48.87 -8.82 C54.19 -12.96, 59 -16.94, 68.13 -24.76" stroke="#1e1e1e" stroke-width="2" fill="none"/></g><g transform="translate(83 118) rotate(0 34 -12)"><path d="M43.13 -24.93 C52.57 -23.53, 61.45 -26.61, 68.13 -24.76 M43.13 -24.93 C49.99 -24.55, 56.43 -23.99, 68.13 -24.76" stroke="#1e1e1e" stroke-width="2" fill="none"/></g></g><mask/><g stroke-linecap="round"><g transform="translate(192 256) rotate(0 -2 -70.5)"><path d="M-0.95 0.14 C-1.82 -23.64, -3.88 -118.22, -4.21 -141.63 M0.76 -0.83 C-0.39 -23.95, -4.62 -116.85, -5.27 -140.42" stroke="#1e1e1e" stroke-width="2" fill="none"/></g><g transform="translate(192 256) rotate(0 -2 -70.5)"><path d="M4.16 -117.27 C0.54 -126.65, -4.39 -133.49, -5.27 -140.42 M4.16 -117.27 C1.42 -125.52, -2.73 -134.74, -5.27 -140.42" stroke="#1e1e1e" stroke-width="2" fill="none"/></g><g transform="translate(192 256) rotate(0 -2 -70.5)"><path d="M-12.92 -116.62 C-9.94 -126.12, -8.27 -133.21, -5.27 -140.42 M-12.92 -116.62 C-9.52 -125.27, -7.54 -134.72, -5.27 -140.42" stroke="#1e1e1e" stroke-width="2" fill="none"/></g></g><mask/><g stroke-linecap="round"><g transform="translate(225 89) rotate(0 38 43)"><path d="M0.26 0.36 C12.9 14.48, 62.77 70.84, 75.24 84.95 M-1.06 -0.5 C12.01 13.72, 64.46 71.55, 77.55 85.94" stroke="#1e1e1e" stroke-width="2" fill="none"/></g><g transform="translate(225 89) rotate(0 38 43)"><path d="M55.42 74.3 C61.62 75.91, 64.86 78.53, 77.55 85.94 M55.42 74.3 C59.77 77.26, 65.75 79.89, 77.55 85.94" stroke="#1e1e1e" stroke-width="2" fill="none"/></g><g transform="translate(225 89) rotate(0 38 43)"><path d="M68.08 62.8 C71.1 67.34, 71.15 72.86, 77.55 85.94 M68.08 62.8 C69.77 68.39, 72.98 73.53, 77.55 85.94" stroke="#1e1e1e" stroke-width="2" fill="none"/></g></g><mask/><g stroke-linecap="round"><g transform="translate(358 79) rotate(0 23 22)"><path d="M0.41 -0.72 C8 6.54, 38.52 35.8, 45.94 43.26 M-0.83 1.52 C6.56 8.95, 36.95 37.1, 44.96 44.4" stroke="#1e1e1e" stroke-width="2" fill="none"/></g><g transform="translate(358 79) rotate(0 23 22)"><path d="M21.89 34.78 C28.41 37.83, 36.12 39.36, 44.96 44.4 M21.89 34.78 C29.28 37.04, 35.33 40.86, 44.96 44.4" stroke="#1e1e1e" stroke-width="2" fill="none"/></g><g transform="translate(358 79) rotate(0 23 22)"><path d="M33.47 22.2 C36.07 29.52, 39.89 35.27, 44.96 44.4 M33.47 22.2 C37.33 28.19, 39.9 35.78, 44.96 44.4" stroke="#1e1e1e" stroke-width="2" fill="none"/></g></g><mask/><g stroke-linecap="round"><g transform="translate(445 198) rotate(0 -0.5 56)"><path d="M0.29 0.51 C0.02 19, -0.21 93.28, -0.45 111.97 M-1.01 -0.26 C-1.49 18.95, -0.94 95, -1.11 113.5" stroke="#1e1e1e" stroke-width="2" fill="none"/></g><g transform="translate(445 198) rotate(0 -0.5 56)"><path d="M-9.66 90.01 C-5.2 100.22, -2.71 108.37, -1.11 113.5 M-9.66 90.01 C-6.8 98.8, -3.02 106.01, -1.11 113.5" stroke="#1e1e1e" stroke-width="2" fill="none"/></g><g transform="translate(445 198) rotate(0 -0.5 56)"><path d="M7.45 90.01 C5.11 100.27, 0.82 108.42, -1.11 113.5 M7.45 90.01 C4.18 98.92, 1.82 106.14, -1.11 113.5" stroke="#1e1e1e" stroke-width="2" fill="none"/></g></g><mask/></svg>