<svg version="1.1" xmlns="http://www.w3.org/2000/svg" viewBox="0 0 350 363" width="350" height="363" filter="invert(93%) hue-rotate(180deg)" class="excalidraw-svg">
  <!-- svg-source:excalidraw -->
  <!-- payload-type:application/vnd.excalidraw+json --><!-- payload-version:2 --><!-- payload-start -->eyJ2ZXJzaW9uIjoiMSIsImVuY29kaW5nIjoiYnN0cmluZyIsImNvbXByZXNzZWQiOnRydWUsImVuY29kZWQiOiJ4nHVSW0/CMFx1MDAxNH7nVyzzVYF2XFxcdTAwMWNvippAolx1MDAwZpJoovGhrIetWWmXtuNcIuG/21x1MDAxNlhcdTAwMTHjljTpd077XXp2rSiKzbaCeFx1MDAxNMWwyVxiZ1SRdXzt8Fx1MDAxNSjNpLAl7Pda1irznaSqRp2OnGtGXHUwMDE5XHUwMDEx7SU9XHUwMDFjXHUwMDAwXHUwMDBlS1x1MDAxMEbblk+7j6KdX88oXHUwMDE0ZIaInIM/4EuBXHUwMDA19S/BXHUwMDE3KTwh6uKkh4eomzZcdTAwMWRMP1g6XHUwMDAz1JZcdTAwMTeEa1xiXHUwMDE1XHUwMDA3xcvV08dgfFdPp6/puFx1MDAxNJA+p5O3wLpgnM/MlntVWlrboaaNkiW8M2qKk/cz/L9TStZ5IUA796hBZUUyZrbeQ7dBXHUwMDBmXHUwMDExjKKAbOzuXHUwMDA29ZM2XHUwMDBlIWw9dpteXGJcdTAwMThLLpVcdTAwMTNwhcD9QcKcZGVudVxi2vRcdTAwMThFhK6Iss9cdTAwMTL61kdrSVx1MDAxMlx1MDAwNFx1MDAxNMDywjiwl1x1MDAwNELw+eJeXHUwMDBmY4SGXHLuSKpcdPVcdTAwMGb9XHUwMDE1MlVkXHRcdTAwMTN3QNScn1x1MDAwNyPoMZjTQISRSI7IPrhw/Y9no1x1MDAxNFx1MDAxOOqKksOToyFKcL+P8aA7XGJcdTAwMDFxJspLei6zMkyJR/d29Ze6QZ5cdTAwMTl7ZSPNWmN0xr7h1zXxisH6/m+6V1x1MDAwYv/FraN+N1bgfe5b+1x1MDAxZqv93T8ifQ==<!-- payload-end -->
  <defs>
    <style class="style-fonts">
      @font-face {
        font-family: "Virgil";
        src: url("https://excalidraw.com/Virgil.woff2");
      }
      @font-face {
        font-family: "Cascadia";
        src: url("https://excalidraw.com/Cascadia.woff2");
      }
      @font-face {
        font-family: "Assistant";
        src: url("https://excalidraw.com/Assistant-Regular.woff2");
      }
    </style>
    
  </defs>
  <g stroke-linecap="round" transform="translate(10 10) rotate(0 165 171.5)"><path d="M32 0 C136.38 3.38, 239.39 2.37, 298 0 M32 0 C137.54 0.85, 242.93 2.22, 298 0 M298 0 C318.78 0.37, 328.84 9.25, 330 32 M298 0 C318.24 0.12, 328.32 9.15, 330 32 M330 32 C330.7 135.98, 331.52 239.91, 330 311 M330 32 C330.83 92.52, 330.65 153.15, 330 311 M330 311 C329.71 331.3, 320.34 343.94, 298 343 M330 311 C329.4 331.63, 319.2 341.62, 298 343 M298 343 C230.35 342.04, 163.91 343.05, 32 343 M298 343 C201.14 344.88, 104.94 345.19, 32 343 M32 343 C10.75 343.05, -0.19 334.15, 0 311 M32 343 C8.83 343.26, -0.29 330.83, 0 311 M0 311 C0.19 224.37, -0.49 136.56, 0 32 M0 311 C-2.59 251.14, -1.58 190.24, 0 32 M0 32 C-1.46 10.29, 9.4 -1.54, 32 0 M0 32 C-0.25 12.02, 10.1 0.32, 32 0" stroke="#1e1e1e" stroke-width="2" fill="none"/></g></svg>