<svg version="1.1" xmlns="http://www.w3.org/2000/svg" viewBox="0 0 198 275" width="198" height="275" filter="invert(93%) hue-rotate(180deg)" class="excalidraw-svg">
  <!-- svg-source:excalidraw -->
  <!-- payload-type:application/vnd.excalidraw+json --><!-- payload-version:2 --><!-- payload-start -->eyJ2ZXJzaW9uIjoiMSIsImVuY29kaW5nIjoiYnN0cmluZyIsImNvbXByZXNzZWQiOnRydWUsImVuY29kZWQiOiJ4nHVSy27CMFx1MDAxMLzzXHUwMDE1UbhcdTAwMTaIXHUwMDEzIIFcdTAwMWJ9XHUwMDFjuHAoqlpRVZWJXHUwMDE3sGLsyDZv8e+1XHLEKVVcdTAwMTPJkmd3PTO7e2pcdTAwMDRBqFx1MDAwZiWEwyCEfY5cdTAwMTklXHUwMDEy78JcdTAwMDeLb0EqKrhcdMXursRG5i5cdTAwMTOX5bDTXHUwMDExc0VcdMW8vSaXXHUwMDAyYLBcdTAwMDaulUn5NPcgOLmzRiEh15gvXHUwMDE5uFx1MDAwMlx1MDAxN/IsKLlcdTAwMDcngjtCXHUwMDE0J720m/RcdTAwMDa9KoOqZ0OngZjwXHUwMDAyM1x1MDAwNT5iofB1fFx1MDAxYyH2MZqhaSxmozJ6KybfnnVBXHUwMDE5m+pcdTAwMDNzqpQwtn1MaSlcbninRK9u3mv4f1VSbJYrXHUwMDBlyrpHXHUwMDE1KkqcU32wWFx1MDAxNFXopVx1MDAwNcPAI3tza6Fu3Eax92jLWlx0Su9cdTAwMTQ8XHQmpFXQRGB/r2GO82JphHBS5WiJuSqxNHPxeburN5RmXHUwMDE1tlx1MDAwMrpcXGlruOdcdTAwMTUocFxyXHUwMDFlZFlcdTAwMTSnWeZcdTAwMDdkWcoxcaP+8l2VeFxyY1vBN4zVW8PJtTW3lfBLkVxckbO3YfNfasvkXHUwMDE5NiXBl6GjXHUwMDE0JUYq6vdcdTAwMDeRn1x1MDAxMaO8uKdnXCIv/J449GxO96hd5ak2T1bSjDVKpvRcYr+eXHS3XHUwMDE0do9/29tcXLgvbFxc9dvFXHUwMDAy5/PcOP9cdTAwMDCAeN3QIn0=<!-- payload-end -->
  <defs>
    <style class="style-fonts">
      @font-face {
        font-family: "Virgil";
        src: url("https://excalidraw.com/Virgil.woff2");
      }
      @font-face {
        font-family: "Cascadia";
        src: url("https://excalidraw.com/Cascadia.woff2");
      }
      @font-face {
        font-family: "Assistant";
        src: url("https://excalidraw.com/Assistant-Regular.woff2");
      }
    </style>
    
  </defs>
  <g stroke-linecap="round" transform="translate(10 10) rotate(0 89 127.5)"><path d="M32 0 C75.09 -1.14, 113.72 1.8, 146 0 M32 0 C55.17 0.27, 79.39 0.27, 146 0 M146 0 C168.96 -1.11, 177.33 10.51, 178 32 M146 0 C167.71 1.79, 178.81 9.85, 178 32 M178 32 C179.38 79.49, 177.03 128.18, 178 223 M178 32 C175.95 90.88, 176.24 152.51, 178 223 M178 223 C176.7 244.93, 169.28 255.51, 146 255 M178 223 C176.22 243.81, 165.05 253.53, 146 255 M146 255 C102.17 253.8, 59.72 255.32, 32 255 M146 255 C120.85 256.25, 93.64 255.87, 32 255 M32 255 C10.57 255.12, -1.68 245.09, 0 223 M32 255 C10.61 255.06, 0.59 243.84, 0 223 M0 223 C1.29 153.92, -0.25 82.35, 0 32 M0 223 C1.97 166.47, 1.2 110.4, 0 32 M0 32 C1.77 11.59, 11.9 1.54, 32 0 M0 32 C2.21 8.87, 10.28 -1.66, 32 0" stroke="#1e1e1e" stroke-width="2" fill="none"/></g></svg>